<?xml version="1.0" encoding="UTF-8"?>
<svg xmlns="http://www.w3.org/2000/svg" width="512" height="512" viewBox="0 0 512 512">
	<defs>
		<!-- Left half clip path -->
		<clipPath id="left-half">
			<rect x="0" y="0" width="256" height="512" />
		</clipPath>
		<!-- Right half clip path -->
		<clipPath id="right-half">
			<rect x="256" y="0" width="256" height="512" />
		</clipPath>
	</defs>

	<!-- CSS3 Shield Background -->
	<path fill="#cc6699" d="M71.357 460.819L30.272 0h451.456l-41.129 460.746L255.724 512z"/>
	<path fill="#e093ba" d="M405.388 431.408l35.148-393.73H256v435.146z"/>

	<!-- Left Half (x < 256) -->
	<g clip-path="url(#left-half)" fill="none" stroke-width="24" stroke-linecap="round" stroke-linejoin="round">
		<!-- 'css' text (Left portion) -->
		<g stroke="#ebebeb">
			<!-- Letter 'c' -->
			<path d="M 202 119 A 65 65 0 1 0 202 211" />
			<!-- Letter 's' -->
			<path d="M 282 115 A 30 30 0 0 0 230 130 C 230 160 282 170 282 200 A 30 30 0 0 1 230 215" />
			<!-- Letter 's' -->
			<path d="M 382 115 A 30 30 0 0 0 330 130 C 330 160 382 170 382 200 A 30 30 0 0 1 330 215" />
		</g>
		<!-- Tab Symbol (Left portion) - Deep Matte Black -->
		<g stroke="#1a1a1a">
			<!-- Vertical Bar -->
			<path d="M 360 260 L 360 410" />
			<!-- Arrow Shaft and Head -->
			<path d="M 141 335 L 316 335" />
			<path d="M 266 285 L 316 335 L 266 385" />
		</g>
	</g>

	<!-- Right Half (x >= 256) -->
	<g clip-path="url(#right-half)" fill="none" stroke-width="24" stroke-linecap="round" stroke-linejoin="round">
		<!-- 'css' text (Right portion) -->
		<g stroke="#ffffff">
			<!-- Letter 'c' -->
			<path d="M 202 119 A 65 65 0 1 0 202 211" />
			<!-- Letter 's' -->
			<path d="M 282 115 A 30 30 0 0 0 230 130 C 230 160 282 170 282 200 A 30 30 0 0 1 230 215" />
			<!-- Letter 's' -->
			<path d="M 382 115 A 30 30 0 0 0 330 130 C 330 160 382 170 382 200 A 30 30 0 0 1 330 215" />
		</g>
		<!-- Tab Symbol (Right portion) - Charcoal Black -->
		<g stroke="#3b3b3b">
			<!-- Vertical Bar -->
			<path d="M 360 260 L 360 410" />
			<!-- Arrow Shaft and Head -->
			<path d="M 141 335 L 316 335" />
			<path d="M 266 285 L 316 335 L 266 385" />
		</g>
	</g>
</svg>
